<svg width="512" height="512" viewBox="0 0 512 512" fill="none" xmlns="http://www.w3.org/2000/svg">
  <!-- Background -->
  <rect width="512" height="512" fill="#c41e3a" rx="85"/>
  
  <!-- Christmas Tree -->
  <path d="M256 120 L320 200 L307 200 L360 267 L347 267 L400 347 L112 347 L165 267 L152 267 L205 200 L192 200 Z" fill="#2ecc71"/>
  
  <!-- Tree Star -->
  <path d="M256 80 L264 107 L291 107 L269 125 L277 152 L256 133 L235 152 L243 125 L221 107 L248 107 Z" fill="#f1c40f"/>
  
  <!-- Tree Trunk -->
  <rect x="236" y="347" width="40" height="30" fill="#8B4513"/>
  
  <!-- Tree Ornaments (Larger) -->
  <circle cx="227" cy="240" r="11" fill="#e74c3c"/>
  <circle cx="285" cy="240" r="11" fill="#f1c40f"/>
  <circle cx="200" cy="293" r="11" fill="#3498db"/>
  <circle cx="256" cy="280" r="11" fill="#e74c3c"/>
  <circle cx="312" cy="293" r="11" fill="#f1c40f"/>
  <circle cx="173" cy="333" r="11" fill="#3498db"/>
  <circle cx="339" cy="333" r="11" fill="#e74c3c"/>
  <circle cx="256" cy="320" r="11" fill="#f1c40f"/>
  <circle cx="220" cy="310" r="9" fill="#3498db"/>
  <circle cx="292" cy="310" r="9" fill="#e74c3c"/>
  
  <!-- Taipei 101 Silhouette (Larger) -->
  <rect x="374" y="267" width="80" height="160" fill="rgba(255,255,255,0.3)"/>
  <rect x="387" y="253" width="54" height="14" fill="rgba(255,255,255,0.3)"/>
  <rect x="394" y="240" width="40" height="13" fill="rgba(255,255,255,0.3)"/>
  <rect x="401" y="227" width="26" height="13" fill="rgba(255,255,255,0.3)"/>
  <rect x="408" y="213" width="12" height="14" fill="rgba(255,255,255,0.3)"/>
  <path d="M410 200 L420 200 L420 213 L410 213 Z" fill="rgba(255,255,255,0.3)"/>
  
  <!-- Windows on Taipei 101 -->
  <rect x="384" y="280" width="8" height="12" fill="rgba(255,255,192,0.5)"/>
  <rect x="396" y="280" width="8" height="12" fill="rgba(255,255,192,0.5)"/>
  <rect x="408" y="280" width="8" height="12" fill="rgba(255,255,192,0.5)"/>
  <rect x="420" y="280" width="8" height="12" fill="rgba(255,255,192,0.5)"/>
  <rect x="432" y="280" width="8" height="12" fill="rgba(255,255,192,0.5)"/>
  <rect x="444" y="280" width="8" height="12" fill="rgba(255,255,192,0.5)"/>
  
  <rect x="384" y="300" width="8" height="12" fill="rgba(255,255,192,0.5)"/>
  <rect x="396" y="300" width="8" height="12" fill="rgba(255,255,192,0.5)"/>
  <rect x="408" y="300" width="8" height="12" fill="rgba(255,255,192,0.5)"/>
  <rect x="420" y="300" width="8" height="12" fill="rgba(255,255,192,0.5)"/>
  <rect x="432" y="300" width="8" height="12" fill="rgba(255,255,192,0.5)"/>
  <rect x="444" y="300" width="8" height="12" fill="rgba(255,255,192,0.5)"/>
  
  <!-- Decorative Stars -->
  <path d="M140 100 L143 106 L149 106 L144 110 L146 116 L140 112 L134 116 L136 110 L131 106 L137 106 Z" fill="rgba(255,255,255,0.7)"/>
  <path d="M380 140 L383 146 L389 146 L384 150 L386 156 L380 152 L374 156 L376 150 L371 146 L377 146 Z" fill="rgba(255,255,255,0.7)"/>
  <path d="M100 200 L103 206 L109 206 L104 210 L106 216 L100 212 L94 216 L96 210 L91 206 L97 206 Z" fill="rgba(255,255,255,0.7)"/>
  
  <!-- Snow/Decorative elements -->
  <circle cx="60" cy="120" r="4" fill="rgba(255,255,255,0.6)"/>
  <circle cx="450" cy="100" r="5" fill="rgba(255,255,255,0.6)"/>
  <circle cx="80" cy="160" r="3" fill="rgba(255,255,255,0.6)"/>
  <circle cx="430" cy="180" r="4" fill="rgba(255,255,255,0.6)"/>
  
  <!-- Year Text (Larger) -->
  <text x="256" y="467" font-family="Arial, sans-serif" font-size="64" font-weight="bold" fill="white" text-anchor="middle">2025</text>
  
  <!-- Taipei Text (Larger) -->
  <text x="256" y="413" font-family="Arial, sans-serif" font-size="42" font-weight="600" fill="rgba(255,255,255,0.95)" text-anchor="middle">台北聖誕</text>
</svg>
